<svg id="a14d23cf-9d9b-4485-9ed3-af98f6406bb2" data-name="e503c7c1-1393-4c2f-8a5a-c28afa5e301d" xmlns="http://www.w3.org/2000/svg" width="865.76" height="682.89" viewBox="0 0 865.76 682.89"><path d="M88.27,477.08s-13.75-52.49,1.5-104.81a141.11,141.11,0,0,1,33-57c22.29-23.68,94.82-107,109.94-202.46,0,0,19.5-172.5,305.32-31.51,0,0,70.17,41.82,136.2,39,0,0,98.38-21.15,108.27,67.83,3.74,33.65-8.94,66.84-33,90.66-18.73,18.54-37,50.8-13.6,97.27,0,0,39.42,36.5,6.85,101.1Z" fill="#7a000c"/><path d="M88.27,477.08s-13.75-52.49,1.5-104.81a141.11,141.11,0,0,1,33-57c22.29-23.68,94.82-107,109.94-202.46,0,0,19.5-172.5,305.32-31.51,0,0,70.17,41.82,136.2,39,0,0,98.38-21.15,108.27,67.83,3.74,33.65-8.94,66.84-33,90.66-18.73,18.54-37,50.8-13.6,97.27,0,0,39.42,36.5,6.85,101.1Z" fill="#fff" opacity="0.8" style="isolation:isolate"/><path d="M88.27,507.18S72.93,649.91,266.45,656.86a295.26,295.26,0,0,0,124.87-22.57c41.82-17.64,115.79-41.35,199.93-34.54,30.73,2.49,61.74-3.19,88.24-16.86,26.11-13.46,52.19-36.46,63.3-75.71Z" fill="#7a000c"/><path d="M88.27,507.18S72.93,649.91,266.45,656.86a295.26,295.26,0,0,0,124.87-22.57c41.82-17.64,115.79-41.35,199.93-34.54,30.73,2.49,61.74-3.19,88.24-16.86,26.11-13.46,52.19-36.46,63.3-75.71Z" fill="#fff" opacity="0.8" style="isolation:isolate"/><path d="M309.63,594.24s-.87-8.9,1-15.84l32.14,21.12,3.66,8.75-25.22,7.35Z" fill="#7a000c"/><path d="M309.63,594.24s-.87-8.9,1-15.84l32.14,21.12,3.66,8.75-25.22,7.35Z" opacity="0.2" style="isolation:isolate"/><rect x="236.81" y="164.79" width="358.14" height="312.29" fill="#d1d3d4"/><polygon points="485.52 416.61 493.29 247.04 573.23 247.04 576.1 477.08 493.29 477.08 493.29 428.5 236.81 428.5 485.52 416.61" fill="#bcbec0" opacity="0.46" style="isolation:isolate"/><path d="M236.81,164.79h18.85v57.43a9.42,9.42,0,0,1-9.42,9.42h0a9.42,9.42,0,0,1-9.42-9.42V164.79h0Z" fill="#bcbec0"/><path d="M255.66,164.79h18.85v57.43a9.42,9.42,0,0,1-9.42,9.42h0a9.42,9.42,0,0,1-9.42-9.42V164.79Z" fill="#a7a9ac"/><path d="M274.51,164.79h18.85v57.43a9.42,9.42,0,0,1-9.42,9.42h0a9.42,9.42,0,0,1-9.42-9.42h0V164.79Z" fill="#bcbec0"/><path d="M293.36,164.79h18.85v57.43a9.42,9.42,0,0,1-9.42,9.42h0a9.42,9.42,0,0,1-9.42-9.42h0V164.79Z" fill="#a7a9ac"/><path d="M312.21,164.79h18.85v57.43a9.42,9.42,0,0,1-9.42,9.42h0a9.42,9.42,0,0,1-9.42-9.42h0V164.79Z" fill="#bcbec0"/><path d="M331.06,164.79h18.85v57.43a9.42,9.42,0,0,1-9.42,9.42h0a9.42,9.42,0,0,1-9.42-9.42h0V164.79Z" fill="#a7a9ac"/><path d="M349.91,164.79h18.85v57.43a9.42,9.42,0,0,1-9.42,9.42h0a9.42,9.42,0,0,1-9.42-9.42h0V164.79Z" fill="#bcbec0"/><path d="M368.75,164.79H387.6v57.43a9.42,9.42,0,0,1-9.42,9.42h0a9.42,9.42,0,0,1-9.42-9.42h0V164.79Z" fill="#a7a9ac"/><path d="M387.6,164.79h18.85v57.43a9.42,9.42,0,0,1-9.42,9.42h0a9.42,9.42,0,0,1-9.42-9.42h0V164.79Z" fill="#bcbec0"/><path d="M406.45,164.79H425.3v57.43a9.42,9.42,0,0,1-9.42,9.42h0a9.42,9.42,0,0,1-9.42-9.42h0V164.79h0Z" fill="#a7a9ac"/><path d="M425.3,164.79h18.85v57.43a9.42,9.42,0,0,1-9.42,9.42h0a9.42,9.42,0,0,1-9.42-9.42h0V164.79Z" fill="#bcbec0"/><path d="M444.15,164.79H463v57.43a9.42,9.42,0,0,1-9.42,9.42h0a9.42,9.42,0,0,1-9.42-9.42h0V164.79h0Z" fill="#a7a9ac"/><path d="M463,164.79h18.85v57.43a9.42,9.42,0,0,1-9.42,9.42h0a9.42,9.42,0,0,1-9.42-9.42h0V164.79Z" fill="#bcbec0"/><path d="M481.85,164.79H500.7v57.43a9.42,9.42,0,0,1-9.42,9.42h0a9.42,9.42,0,0,1-9.42-9.42h0V164.79Z" fill="#a7a9ac"/><path d="M500.7,164.79h18.85v57.43a9.42,9.42,0,0,1-9.42,9.42h0a9.42,9.42,0,0,1-9.42-9.42h0V164.79h0Z" fill="#bcbec0"/><path d="M519.55,164.79H538.4v57.43a9.42,9.42,0,0,1-9.42,9.42h0a9.42,9.42,0,0,1-9.42-9.42V164.79Z" fill="#a7a9ac"/><path d="M538.4,164.79h18.85v57.43a9.42,9.42,0,0,1-9.42,9.42h0a9.42,9.42,0,0,1-9.42-9.42V164.79h0Z" fill="#bcbec0"/><path d="M557.25,164.79H576.1v57.43a9.42,9.42,0,0,1-9.42,9.42h0a9.42,9.42,0,0,1-9.42-9.42V164.79h0Z" fill="#a7a9ac"/><path d="M576.1,164.79H595v57.43a9.42,9.42,0,0,1-9.42,9.42h0a9.42,9.42,0,0,1-9.42-9.42V164.79h0Z" fill="#bcbec0"/><rect x="255.66" y="247.04" width="220.47" height="147.26" fill="#bcbec0"/><rect x="267.95" y="259.76" width="195.05" height="122.5" fill="#7a000c" opacity="0.47" style="isolation:isolate"/><polygon points="267.95 382.26 280.67 269.13 448.68 269.13 463 382.26 463 259.76 267.95 259.76 267.95 382.26" fill="#7a000c" opacity="0.46" style="isolation:isolate"/><rect x="497.55" y="253.07" width="71.62" height="224.01" fill="#e6e7e8"/><rect x="503.38" y="257.29" width="59.96" height="129.35" fill="#7a000c" opacity="0.47" style="isolation:isolate"/><rect x="503.38" y="394.31" width="59.96" height="68.38" fill="#7a000c" opacity="0.47" style="isolation:isolate"/><rect x="236.81" y="428.5" width="256.48" height="48.59" fill="#bcbec0"/><rect x="236.81" y="126.76" width="358.14" height="38.04" fill="#d1d3d4"/><rect x="230.94" y="139.67" width="369.12" height="13.99" rx="1.8" fill="#a7a9ac"/><rect x="230.94" y="112.77" width="369.12" height="13.99" rx="1.8" fill="#a7a9ac"/><rect x="306.81" y="86.4" width="214.69" height="53.27" rx="2.22" fill="#bcbec0"/><rect x="315.15" y="96.62" width="198.01" height="34.44" rx="0.9" fill="#d1d3d4"/><path d="M347.65,112.62a7.29,7.29,0,0,1-3,2.85,10.67,10.67,0,0,1-5,1.08H335.9v8.81h-6V100.81h9.69a10.9,10.9,0,0,1,5,1,7,7,0,0,1,3,2.79,8.78,8.78,0,0,1,.06,8ZM341.7,111a3.5,3.5,0,0,0,0-4.55,3.63,3.63,0,0,0-2.55-.8H335.9v6.15h3.25A3.52,3.52,0,0,0,341.7,111Z" fill="#bcbec0"/><path d="M358.42,105.6v5h8v4.61h-8v5.39h9.06v4.79h-15V100.81h15v4.79Z" fill="#bcbec0"/><path d="M389.72,100.81v4.79h-6.5v19.76h-6V105.6h-6.51v-4.79Z" fill="#bcbec0"/><path d="M405.6,124.73a7.81,7.81,0,0,1-3.41-2.59,7.1,7.1,0,0,1-1.35-4.12h6.37a3.09,3.09,0,0,0,.94,2.08,3,3,0,0,0,2.1.72,3.34,3.34,0,0,0,2.1-.61,2.06,2.06,0,0,0,.77-1.7,2,2,0,0,0-.61-1.51,5.09,5.09,0,0,0-1.51-1c-.59-.25-1.44-.54-2.53-.87a26.68,26.68,0,0,1-3.88-1.47,7,7,0,0,1-2.59-2.17,6,6,0,0,1-1.09-3.74,6.44,6.44,0,0,1,2.49-5.37,10.2,10.2,0,0,1,6.47-1.94,10.34,10.34,0,0,1,6.54,1.94,7,7,0,0,1,2.66,5.41h-6.48a2.46,2.46,0,0,0-.87-1.87,3,3,0,0,0-2.06-.69,2.52,2.52,0,0,0-1.75.58,2.21,2.21,0,0,0,.45,3.51,17.78,17.78,0,0,0,3.5,1.44,31.49,31.49,0,0,1,3.87,1.54,7.37,7.37,0,0,1,2.57,2.13,5.78,5.78,0,0,1,1.08,3.6,6.93,6.93,0,0,1-1.07,3.81,7.35,7.35,0,0,1-3.09,2.73,10.58,10.58,0,0,1-4.79,1A12.46,12.46,0,0,1,405.6,124.73Z" fill="#bcbec0"/><path d="M445,100.81v24.55h-6v-10.1h-9.31v10.1h-6V100.81h6v9.62H439v-9.62Z" fill="#bcbec0"/><path d="M455.28,124a12,12,0,0,1-4.58-4.5,13.16,13.16,0,0,1,0-13,12.09,12.09,0,0,1,4.58-4.48,13.31,13.31,0,0,1,12.7,0,11.91,11.91,0,0,1,4.54,4.48,13.41,13.41,0,0,1,0,13A11.84,11.84,0,0,1,468,124a13.27,13.27,0,0,1-12.68,0Zm11.05-5.81a8.48,8.48,0,0,0,0-10.37,6.72,6.72,0,0,0-9.44,0,8.52,8.52,0,0,0,0,10.4,6.1,6.1,0,0,0,4.74,1.94A6,6,0,0,0,466.33,118.19Z" fill="#bcbec0"/><path d="M495.94,112.62a7.35,7.35,0,0,1-3,2.85,10.67,10.67,0,0,1-5,1.08h-3.7v8.81h-6V100.81h9.69a11.06,11.06,0,0,1,5,1,7,7,0,0,1,3,2.79,8.58,8.58,0,0,1,0,8ZM490,111a3.5,3.5,0,0,0,0-4.55,3.63,3.63,0,0,0-2.55-.8H484.2v6.15h3.25A3.52,3.52,0,0,0,490,111Z" fill="#bcbec0"/><polygon points="280.86 382.26 321.63 259.76 361.18 259.76 315.97 382.26 280.86 382.26" fill="#e6e7e8" opacity="0.2" style="isolation:isolate"/><polygon points="369.69 382.26 407.73 259.76 450.53 259.76 408.21 382.26 369.69 382.26" fill="#e6e7e8" opacity="0.2" style="isolation:isolate"/><polygon points="503.38 386.63 503.38 358.52 563.34 298.4 563.34 326.78 503.38 386.63" fill="#e6e7e8" opacity="0.2" style="isolation:isolate"/><polygon points="503.38 257.29 503.38 275.8 519.55 257.29 503.38 257.29" fill="#e6e7e8" opacity="0.2" style="isolation:isolate"/><rect x="88.27" y="477.08" width="654.52" height="30.1" fill="#a7a9ac"/><path d="M367.9,616.86h4.48s-4.38-14.63-4-21.45c0,0-2.35-3.44,2.84-12,0,0,11-14.38,3.3-14.38,0,0-7.85-2-8,5.42l-.47,21v16.86S368,614.74,367.9,616.86Z" fill="#7a000c"/><path d="M367.9,616.86h4.48s-4.38-14.63-4-21.45c0,0-2.35-3.44,2.84-12,0,0,11-14.38,3.3-14.38,0,0-7.85-2-8,5.42l-.47,21v16.86S368,614.74,367.9,616.86Z" opacity="0.2" style="isolation:isolate"/><path d="M309.63,594.24s7.91,14.45,20,10.68c0,0,13.67-6.91,24,3.93,0,0,8,8-4.56,10.84,0,0-3.92,2-18.54.78,0,0-21.68,2.83-22.78-11.15C307.8,609.32,306.9,600.36,309.63,594.24Z" fill="#7a000c"/><path d="M391.7,590.47s-2,7.92-1.86,13.31a5.53,5.53,0,0,0,2.73,4.66,11.34,11.34,0,0,1,5.84,9.26,3.3,3.3,0,0,1-3,3.51c-6,.55-19.32,1.12-23-4.35,0,0-4.46-15.19-4-21.45C368.36,595.41,379.8,588.49,391.7,590.47Z" fill="#fff"/><path d="M340.68,602.25s-1.52-5,6.28-7c0,0,6.74-2.67,19.05.12v16.86s4.36,6.22,1.24,10.12l-22.31-1.51Z" fill="#fff"/><path d="M337.73,469.33s-3.87,4.37,5.38,21.91l11.37-11S343.54,468.63,337.73,469.33Z" fill="#9b62a7"/><path d="M396.65,468.81s5.25,2.58-4.39,23.39l-12.91-11.69S390.24,471.24,396.65,468.81Z" fill="#9b62a7"/><path d="M272.53,486.1s-2.3-24.79-.44-31.57a1.44,1.44,0,0,1,1.8-1l.2.07c2.09.9,6.78,4.29,16.69,16.13C290.77,469.76,276.17,473.8,272.53,486.1Z" fill="#7a000c"/><path d="M303.84,469.6S316,454.35,320.9,451.46c.82-.47,1.59.18,1.81,1.1,1.32,5.45,1.68,10.62-2.18,33.54C320.53,486.1,318,474.14,303.84,469.6Z" fill="#7a000c"/><path d="M303.51,603.7v4.4s10.95-3.47,11.87,11.12H299.86l-10.42-10.08Z" fill="#7a000c"/><path d="M303.51,603.7v4.4s10.95-3.47,11.87,11.12H299.86l-10.42-10.08Z" fill="#e6e7e8" opacity="0.2" style="isolation:isolate"/><path d="M316.46,531.39a62.78,62.78,0,0,0-3.09,5.78l-9.53,20a5.69,5.69,0,0,0-.33.52C300.8,561.82,301,567,301.36,570a4.43,4.43,0,0,0,.19.8,5.42,5.42,0,0,0,1.75,2.79c6.77,5.64,6.39,14.44,6.39,14.44,0,14.31-11.61,22.08-11.61,22.08-7-2.5-25.36.75-25.36.75-19.05,3-29.07,1.52-29.07,1.52a17.46,17.46,0,0,1-10.8-7.54c-11.28,5.27-11.38,17.56-11.38,17.56-21.65-12,1.85-38.89,1.85-38.89-12.06-68.22,38.87-77,38.87-77a14.17,14.17,0,0,0,8.5-7,11.44,11.44,0,0,0,1-6.13c-.33-4,.26-14.47,13.51-21.4,7.16-3.75,15.68-4.31,22.92-.73,6.32,3.12,12.45,9.35,13.67,21.57C324.14,516.1,318.78,527.59,316.46,531.39Z" fill="#7a000c"/><path d="M274.54,477a.4.4,0,0,1-.75-.16c-.36-5.25-1.3-21.48.95-19.8L284,468.22a.63.63,0,0,1-.09.89l-.09.06C281.9,470.19,276.63,473.31,274.54,477Z" fill="#e6e7e8" opacity="0.2" style="isolation:isolate"/><path d="M309.69,469.8s5.53-10.16,10.23-14a.61.61,0,0,1,.86.07.61.61,0,0,1,.14.33c.36,2.51.91,9.62-2,19.57C318.89,475.81,314.78,471,309.69,469.8Z" fill="#e6e7e8" opacity="0.2" style="isolation:isolate"/><path d="M301.36,570a4.43,4.43,0,0,0,.19.8,69.27,69.27,0,0,1-23-19.88s12.52,6.25,25,6.77C300.8,561.82,301,567,301.36,570Z" opacity="0.2" style="isolation:isolate"/><path d="M221.47,622.39s21.19,7.9,72.78,1.52c0,0,10.21-1.67,9.26-8.32,0,0,.07-4.6-5.43-5.49,0,0-6.94-2.6-25.36.75,0,0-7,1.17-21.57,1.38,0,0-10.17,2-18.3-7.4C232.85,604.83,222.56,608.43,221.47,622.39Z" fill="#7a000c"/><path d="M221.47,622.39s21.19,7.9,72.78,1.52c0,0,10.21-1.67,9.26-8.32,0,0,.07-4.6-5.43-5.49,0,0-6.94-2.6-25.36.75,0,0-7,1.17-21.57,1.38,0,0-10.17,2-18.3-7.4C232.85,604.83,222.56,608.43,221.47,622.39Z" opacity="0.2" style="isolation:isolate"/><path d="M293.05,489.41l5-10.57,4.37,10.86a3.47,3.47,0,0,0,1.39,1.64c2.17,1.32,7.41,4.66,9,6.87,2,2.81,5.79.16,5.79-4.3,0,0,.75-14.15-12.87-19.26a23.46,23.46,0,0,0-17.28.56c-6.33,2.69-13.75,8.25-11.88,19.36,0,0,1.32,7.45,6.45,2.48a30.75,30.75,0,0,1,8.07-5.68A4.14,4.14,0,0,0,293.05,489.41Z" fill="#9b62a7"/><path d="M336.55,522.83a4.61,4.61,0,0,0,.59-4.39,22.41,22.41,0,0,1,1-18s1.76-5.3,3.17-8.81a10.9,10.9,0,0,1,2.58-3.81,76.29,76.29,0,0,1,8.3-6.92s-8.61-10.41-14.5-11.59c0,0,1.65-2.59,9.9,3.77l7.54,5.89s11.55-4,23.33.24c0,0,9-9.06,18.15-10.42,0,0-13,8.77-14.38,12.07a27.74,27.74,0,0,1,17.21,20.5s4.74,15-2.6,21.53a3.61,3.61,0,0,0-.84,4.26c2.11,4.48,5.33,14.45,1.79,29.12,0,0-6.6,25.69-6.13,34.18,0,0-7.32-3.3-23.34,4.94,0,0-2.35-3.06,2.84-12,0,0,10.84-13.91,3.3-14.38,0,0-8-1.89-8,5.42l-.47,21s-16.44-4-23.85,2.09a3.77,3.77,0,0,0-1.34,2.66l-.14,2.09a67.58,67.58,0,0,0-11.31-1.87,22.57,22.57,0,0,1-9.08-2.26,16.14,16.14,0,0,1-5.89-4.83l-3.52-5.44a7.67,7.67,0,0,1-1.1-5.71A155.75,155.75,0,0,1,336.55,522.83Z" fill="#7a000c"/><path d="M352.75,526.51s14.26,6.56,33.73,1.74c0,0-2.86,9.52-10.9,13.23a13.59,13.59,0,0,1-14.33-1.72C358.35,537.45,355.08,533.44,352.75,526.51Z" opacity="0.2" style="isolation:isolate"/><path d="M619,543.86c-13.72,8.24-34,4.13-34,4.13-1.31,1.71-5.29,2.92-5.29,2.92h.6a4.71,4.71,0,0,1,0,9.41H543.87a5.08,5.08,0,0,1-3.59-1.49,5,5,0,0,1-1.49-3.59,5.07,5.07,0,0,1,5.06-5.06h11.34c3.25-.45-2.58-5.19-2.58-5.19-6.9-4.74-7.35-13.38-7.35-13.38-6.47-11.44-19.85-15.33-19.85-15.33.22,32-4.1,43.4-4.1,43.4-2.6,12.29-20.94,6-20.94,6-4.34-5,11.22-13.37,11.22-13.37L509,520.69l-1.09-13.5a31.71,31.71,0,0,1-14.19-14c-10.34-20.08-.05-48.79-.05-48.79.46-1.67.83-3.27,1.14-4.8a55.46,55.46,0,0,0,.95-17l31-3.53c-1.47,6.71,3.91,15.86,3.91,15.86.45.64.91,1.31,1.35,1.95,14.26,20.15,33.76,35.53,40.47,40.53a83.68,83.68,0,0,1,8.43,7.07c28,27.1,14,51.54,14,51.54,33.39,1.79,19.91-27.73,19.52-28.58C645.73,524,619,543.86,619,543.86Z" fill="#7a000c"/><path d="M532,436.88l-1.77,1.79a20.18,20.18,0,0,0-4.61,7.49c-3.94,11.21-11.23,11.6-11.23,11.6-14.57,1.46-15.71-13.6-15.71-13.6-.24-2.3-2.33-3.79-3.84-4.58a55.46,55.46,0,0,0,1-17l31-3.53c-1.47,6.71,3.91,15.86,3.91,15.86C531.09,435.57,531.55,436.24,532,436.88Z" opacity="0.2" style="isolation:isolate"/><g opacity="0.2"><path d="M545.26,531.58a22,22,0,0,1,2.37-10A18.07,18.07,0,0,1,554.7,514a21.27,21.27,0,0,1,4.86-2,24.79,24.79,0,0,1,5.14-.73,35.57,35.57,0,0,1,10.22,1.14c-.85-.08-1.7-.18-2.55-.28l-2.54-.18h-2.55a15.34,15.34,0,0,0-2.53.14,28.29,28.29,0,0,0-5,.87,20.79,20.79,0,0,0-4.6,1.91,18.63,18.63,0,0,0-6.9,7.06,22.34,22.34,0,0,0-2,4.63A25.06,25.06,0,0,0,545.26,531.58Z"/></g><path d="M509,520.69l-1.95,20.6c-.77,11.73-6.63,13.06-6.63,13.06-11.14,2-13.43-1.14-13.43-1.14C484.73,550,496.66,542,496.66,542l-2.92-48.87a31.71,31.71,0,0,0,14.19,14Z" fill="#7a000c"/><path d="M509,520.69l-1.95,20.6c-.77,11.73-6.63,13.06-6.63,13.06-11.14,2-13.43-1.14-13.43-1.14C484.73,550,496.66,542,496.66,542l-2.92-48.87a31.71,31.71,0,0,0,14.19,14Z" opacity="0.2" style="isolation:isolate"/><path d="M498.48,425.83a23.78,23.78,0,0,1-6.92-17,21.28,21.28,0,0,0,1.07-6.58s4-14.09,12.62-17.85h16s14.36,12.75,12.22,29c0,0-2.15,7.65-7.12,12.21a13.42,13.42,0,0,0-2.82,6.72s-1.88,9.13-12.35,8.86c0,0-8.68-.25-11.11-12.41A5.63,5.63,0,0,0,498.48,425.83Z" fill="#7a000c"/><path d="M498.67,422.37a11.77,11.77,0,0,0,2.57,4.5,6.27,6.27,0,0,0,2.07,1.42,5.9,5.9,0,0,0,2.46.34h0a12,12,0,0,0,3.46-.56,10.82,10.82,0,0,0,3.13-1.57l.21-.15.23.14a13.73,13.73,0,0,0,3.91,1.79,8.66,8.66,0,0,0,4.23.15,6.33,6.33,0,0,0,3.55-2.27c.12-.13.25-.26.37-.4l.3-.46.6-.92c.33-.66.62-1.34.94-2-.25.7-.48,1.41-.77,2.1l-.54,1-.27.5c-.11.15-.23.3-.35.44a6.87,6.87,0,0,1-3.68,2.6,8.67,8.67,0,0,1-4.55,0,14.13,14.13,0,0,1-4.17-1.83h.43a11.14,11.14,0,0,1-3.36,1.63,12.17,12.17,0,0,1-3.69.54h0a6.09,6.09,0,0,1-2.7-.49,6.59,6.59,0,0,1-2.17-1.64,9.5,9.5,0,0,1-1.43-2.26A11.39,11.39,0,0,1,498.67,422.37Z" fill="#9b62a7"/><path d="M512.89,439.31h-.31a5.51,5.51,0,0,1-4.27-1.55c-2.94-2.84-2.9-8.51-2.89-8.75h.75c0,.06-.05,5.6,2.66,8.21a4.83,4.83,0,0,0,3.76,1.34,6.07,6.07,0,0,0,4.35-1.59c1.7-1.61,2.5-4.29,2.38-7.95l.75,0c.12,3.89-.76,6.76-2.63,8.52A6.7,6.7,0,0,1,512.89,439.31Z" fill="#9b62a7"/><path d="M521.23,384.38s11.81.54,15.84,6.31l7.79,8.59s5.5,5.64-1.75,14.77c0,0-3.76,4.43-3.09,10.07,0,0-5-1.21-6.57-10.74C533.45,413.38,536.07,399.53,521.23,384.38Z" fill="#7a000c"/><path d="M521.23,384.38s11.81.54,15.84,6.31l7.79,8.59s5.5,5.64-1.75,14.77c0,0-3.76,4.43-3.09,10.07,0,0-5-1.21-6.57-10.74C533.45,413.38,536.07,399.53,521.23,384.38Z" opacity="0.2" style="isolation:isolate"/><path d="M508.34,420.49s-3.36-3.62.67-5h6.85s3.22,0,1.61,4a11.06,11.06,0,0,1-2.58,2.39,4.27,4.27,0,0,1-4.44.07A12.21,12.21,0,0,1,508.34,420.49Z" fill="#9b62a7"/><path d="M480.27,411.8s-5.57-7.59,0-12.8c0,0,9.31-15.38,25-14.62,0,0-7.09,2.25-12.36,17.09a4.4,4.4,0,0,0-.25,1.44,19.16,19.16,0,0,1-1.08,5.9s.21,12.58-6.9,15.31A16.47,16.47,0,0,0,480.27,411.8Z" fill="#7a000c"/><path d="M480.27,411.8s-5.57-7.59,0-12.8c0,0,9.31-15.38,25-14.62,0,0-7.09,2.25-12.36,17.09a4.4,4.4,0,0,0-.25,1.44,19.16,19.16,0,0,1-1.08,5.9s.21,12.58-6.9,15.31A16.47,16.47,0,0,0,480.27,411.8Z" opacity="0.2" style="isolation:isolate"/><path d="M685.69,360.51s-8.38-20.84-25.48-20c0,0-11.72-.83-21.1,13.11,0,0-7.6,7.61-6.35,38.52l1,25.23,6.09,2.8,47.73-2.44S691,374.87,685.69,360.51Zm-1.25,56.71H636.55s-4.14-43.38,2.69-57.67c0,0,7.86-15.95,21-16.15,0,0,15.39-1.14,23.23,20.45a15,15,0,0,1,.74,2.88C685,371.67,687,389,684.44,417.22Z" fill="#7a000c"/><path d="M648.71,365.66s-.59-11.53,9.54-10.49c0,0,3.55-3,5.11-3.55,0,0,6.28,1.11,4.43,1.85,0,0-4.88,1.33-4.95,2.07,0,0,7.28-.69,7.61,3.09a.41.41,0,0,1-.37.45h0a13.11,13.11,0,0,1-2.85-.44s-2.59-1.19-1.4,0c0,0,7.5,4.73,7.13,18.72l.64,17.76s1.37,6.15,1,8c-.06.24-.31.24-.52.11-.88-.54-2.19-3.33-3.91-8,0,0,1,4.2-.61,4.75a.6.6,0,0,1-.65-.1c-.6-.57-2.23-2.23-3.23-9.49a9.21,9.21,0,0,1-.55,3.29.66.66,0,0,1-.89.25.69.69,0,0,1-.18-.16c-.64-.78-1.84-3.21-1.69-10.35,0,0-5,11.94-3.66,16.43,0,0,.46,3,1.34,3.95a.57.57,0,0,0,1-.29l.72-3.11a48,48,0,0,0,4,10.5,5.28,5.28,0,0,0,.93,1.45.39.39,0,0,0,.56,0,.3.3,0,0,0,.1-.2l.62-4.32,1.87,4.35,1.22,6.72-18.32.46s-8.28-19.61-6.53-30.74A58.18,58.18,0,0,1,649,377.17l-.37-6.44Z" fill="#7a000c"/><path d="M634.61,417.22h51.28a2.94,2.94,0,0,1,2.94,2.94h0a2.94,2.94,0,0,1-2.94,2.94H634.61a2.94,2.94,0,0,1-2.94-2.94h0A2.94,2.94,0,0,1,634.61,417.22Z" fill="#7a000c"/><path d="M634.61,417.22h51.28a2.94,2.94,0,0,1,2.94,2.94h0a2.94,2.94,0,0,1-2.94,2.94H634.61a2.94,2.94,0,0,1-2.94-2.94h0A2.94,2.94,0,0,1,634.61,417.22Z" fill="#fff" opacity="0.5" style="isolation:isolate"/><path d="M664.58,454.78s1.67,20.15,3,21.71c0,0,1.22-.44,1.67-12.47,0,0,.22,7.13,1.45,7.13,0,0,1.33.33,1.78-9.13,0,0-.67-26.6-4.68-38.92H660s1,34.57,2,39.17a.24.24,0,0,0,.29.2.27.27,0,0,0,.16-.1C662.83,461.76,663.73,460,664.58,454.78Z" fill="#7a000c"/><path d="M664.58,454.78s1.67,20.15,3,21.71c0,0,1.22-.44,1.67-12.47,0,0,.22,7.13,1.45,7.13,0,0,1.33.33,1.78-9.13,0,0-.67-26.6-4.68-38.92H660s1,34.57,2,39.17a.24.24,0,0,0,.29.2.27.27,0,0,0,.16-.1C662.83,461.76,663.73,460,664.58,454.78Z" opacity="0.2" style="isolation:isolate"/><path d="M647,415.5a10.42,10.42,0,0,1-2.07,2.51.36.36,0,0,1-.5-.12.46.46,0,0,1,0-.2,6.19,6.19,0,0,1,1.43-2.8s1.72-3.9,4.4-2.4A3.44,3.44,0,0,1,651.6,414a19.89,19.89,0,0,1,1.31,3.25s-1.52-2.17-2.58-.51c0,0-1.08,1.37-2,1.49a.35.35,0,0,1-.39-.3.32.32,0,0,1,0-.14,9.75,9.75,0,0,1,.65-1.65,10.42,10.42,0,0,1-2.14,2.45.46.46,0,0,1-.62-.18.45.45,0,0,1-.05-.32A10.91,10.91,0,0,1,647,415.5Z" fill="#7a000c"/><path d="M647,415.5a10.42,10.42,0,0,1-2.07,2.51.36.36,0,0,1-.5-.12.46.46,0,0,1,0-.2,6.19,6.19,0,0,1,1.43-2.8s1.72-3.9,4.4-2.4A3.44,3.44,0,0,1,651.6,414a19.89,19.89,0,0,1,1.31,3.25s-1.52-2.17-2.58-.51c0,0-1.08,1.37-2,1.49a.35.35,0,0,1-.39-.3.32.32,0,0,1,0-.14,9.75,9.75,0,0,1,.65-1.65,10.42,10.42,0,0,1-2.14,2.45.46.46,0,0,1-.62-.18.45.45,0,0,1-.05-.32A10.91,10.91,0,0,1,647,415.5Z" opacity="0.2" style="isolation:isolate"/><path d="M662.23,415.8s-2.63,3.19-3.85,3.53c0,0-1-.19,1.57-3.53,0,0,2.66-4.32,3.95-2.12,0,0,1.29-1.6,1.29,1.7,0,0,1.36-1.47,2-.71,0,0,1.08.91-.94,2.95,0,0-1.79,2.78-2.93,2.13,0,0-.37-.69.76-2.53a10.53,10.53,0,0,1-2.21,2.54.49.49,0,0,1-.67-.17.51.51,0,0,1-.06-.34A16.67,16.67,0,0,1,662.23,415.8Z" fill="#7a000c"/><path d="M662.23,415.8s-2.63,3.19-3.85,3.53c0,0-1-.19,1.57-3.53,0,0,2.66-4.32,3.95-2.12,0,0,1.29-1.6,1.29,1.7,0,0,1.36-1.47,2-.71,0,0,1.08.91-.94,2.95,0,0-1.79,2.78-2.93,2.13,0,0-.37-.69.76-2.53a10.53,10.53,0,0,1-2.21,2.54.49.49,0,0,1-.67-.17.51.51,0,0,1-.06-.34A16.67,16.67,0,0,1,662.23,415.8Z" opacity="0.2" style="isolation:isolate"/><rect x="614.12" y="441.14" width="91.67" height="13.85" fill="#9b62a7"/><rect x="620.74" y="454.99" width="78.42" height="14.73" fill="#9b62a7"/><rect x="620.74" y="454.99" width="78.42" height="14.73" opacity="0.2" style="isolation:isolate"/><rect x="621.85" y="469.72" width="76.21" height="7.36" fill="#9b62a7"/><path d="M619.06,441.25c-.16-.53-15.64-53.19-12.47-82.94,0-.44,4.89-44,45.16-48.56l.08.74c-39.67,4.48-44.45,47.46-44.5,47.89C604.18,388,619.62,440.51,619.77,441Z" fill="#9b62a7"/><path d="M636.93,441.18l-7.67-64.87c-.06-.49-6.17-50.29,22.35-66.52l.37.65c-28.08,16-22,65.28-22,65.78l7.66,64.88Z" fill="#9b62a7"/><path d="M683,441.21l-.73-.14c6.81-37.09,8.26-75.43,8.27-75.81,2.45-39-20.2-54.69-20.42-54.83l.41-.63c.22.14,23.23,16,20.76,55.5C691.24,365.67,689.79,404.06,683,441.21Z" fill="#9b62a7"/><path d="M700.63,441.25l-.72-.21c.19-.69,19.74-68.89,10.78-91.43-.11-.4-11.05-36.52-39.16-38.15v-.74c28.66,1.65,39.73,38.29,39.83,38.66C720.44,372.11,700.83,440.56,700.63,441.25Z" fill="#9b62a7"/><path d="M661.89,303.91l1.28-6.81a32.79,32.79,0,0,0,.46-4.42,33.58,33.58,0,0,0-.19-5.21,2.27,2.27,0,0,0-.57-1.28,8.93,8.93,0,0,0-1.08-1.05,7.81,7.81,0,0,0-1.15-.83,2.65,2.65,0,0,0-3.64.88,2.69,2.69,0,0,0-.16.29h0a14.23,14.23,0,0,0-1.1,4.15,63.65,63.65,0,0,0,.92,7.91,61.14,61.14,0,0,0,1.47,6.26c-1.14.19-7.27,1.47-10.59,6.95,0,0,13.45,0,25,.32A15.75,15.75,0,0,0,661.89,303.91Zm-1.94-.09-2.12-10.45a10.77,10.77,0,0,1,.31-5.63c.43-1.23,1-2.23,1.81-1.78,1.75,1,2.3,2.4,1.84,8.47Z" fill="#9b62a7"/><polygon points="651.26 342.45 650.26 343.38 650.26 339.45 651.26 339.45 651.26 342.45" fill="#9b62a7"/><path d="M651.26,334.18h-1v-5.26h1Zm0-10.53h-1v-5.26h1Z" fill="#9b62a7"/><rect x="650.26" y="310.12" width="1" height="3" fill="#9b62a7"/><rect x="669.79" y="339.45" width="1" height="3" fill="#9b62a7"/><path d="M670.79,334.18h-1v-5.26h1Zm0-10.53h-1v-5.26h1Z" fill="#9b62a7"/><rect x="669.79" y="310.12" width="1" height="3" fill="#9b62a7"/><path d="M643.12,373.75s2.66-2.69,4.32-1.59c0,0,3,2.54,3.78-.12,0,0,1.56-3.67-.47-4.77,0,0-3.77-4.24-5.47-.37A30,30,0,0,0,643.12,373.75Z" fill="#9b62a7"/><path d="M673.57,395.12l9.67,25.59s2.12,6,1.66,6.81c0,0-.31,1.47-5.63-4.33l-9.58-11-1.87-4.35-.62,4.32s-.41,1-1.09-.29a40.18,40.18,0,0,1-4.45-11.42l-.72,3.11s-.2.78-1,.29c0,0-.82-.6-1.34-4,0,0-.88-1.81.58-7.27a71.94,71.94,0,0,1,3.08-9.16s-.18,7.8,1.69,10.35a.64.64,0,0,0,.91.09.55.55,0,0,0,.16-.18,8.06,8.06,0,0,0,.55-3.29s1.17,7.62,3.28,9.34c0,0,.38.45.92-.13,0,0,.88-.78.29-4.37,0,0,2,5.36,3.91,8,0,0,.29.32.52-.11C674.53,403.09,675,402.08,673.57,395.12Z" fill="#7a000c"/><path d="M673.57,395.12l9.67,25.59s2.12,6,1.66,6.81c0,0-.31,1.47-5.63-4.33l-9.58-11-1.87-4.35-.62,4.32s-.41,1-1.09-.29a40.18,40.18,0,0,1-4.45-11.42l-.72,3.11s-.2.78-1,.29c0,0-.82-.6-1.34-4,0,0-.88-1.81.58-7.27a71.94,71.94,0,0,1,3.08-9.16s-.18,7.8,1.69,10.35a.64.64,0,0,0,.91.09.55.55,0,0,0,.16-.18,8.06,8.06,0,0,0,.55-3.29s1.17,7.62,3.28,9.34c0,0,.38.45.92-.13,0,0,.88-.78.29-4.37,0,0,2,5.36,3.91,8,0,0,.29.32.52-.11C674.53,403.09,675,402.08,673.57,395.12Z" opacity="0.2" style="isolation:isolate"/><rect x="594.58" y="375.12" width="131.02" height="1" transform="translate(283.2 1034.99) rotate(-89.89)" fill="#9b62a7"/></svg>